<svg width="1200" height="240" viewBox="0 0 1200 240" xmlns="http://www.w3.org/2000/svg" role="img" aria-label="Exercise type icons">
  <defs>
    <linearGradient id="cardA" x1="0" y1="0" x2="1" y2="1">
      <stop offset="0%" stop-color="#fff8ef" />
      <stop offset="100%" stop-color="#fff2dd" />
    </linearGradient>
    <linearGradient id="cardB" x1="0" y1="0" x2="1" y2="1">
      <stop offset="0%" stop-color="#eef8ff" />
      <stop offset="100%" stop-color="#deefff" />
    </linearGradient>
    <linearGradient id="cardC" x1="0" y1="0" x2="1" y2="1">
      <stop offset="0%" stop-color="#effcf2" />
      <stop offset="100%" stop-color="#ddf8e4" />
    </linearGradient>
  </defs>

  <rect x="20" y="20" width="360" height="200" rx="22" fill="url(#cardA)" stroke="#f1cc92" />
  <rect x="420" y="20" width="360" height="200" rx="22" fill="url(#cardB)" stroke="#9bc8f0" />
  <rect x="820" y="20" width="360" height="200" rx="22" fill="url(#cardC)" stroke="#9ddab0" />

  <g transform="translate(100 65)">
    <rect x="0" y="0" width="200" height="110" rx="10" fill="#2a2f3a" />
    <circle cx="20" cy="20" r="5" fill="#ff6b6b" />
    <circle cx="40" cy="20" r="5" fill="#ffd166" />
    <circle cx="60" cy="20" r="5" fill="#06d6a0" />
    <text x="20" y="55" font-family="Consolas, monospace" font-size="18" fill="#7ee787">x = 10</text>
    <text x="20" y="85" font-family="Consolas, monospace" font-size="18" fill="#79c0ff">print(x)</text>
  </g>

  <g transform="translate(500 62)">
    <circle cx="90" cy="60" r="52" fill="none" stroke="#1f6fb2" stroke-width="8" />
    <path d="M90 12 L100 38 L128 40 L106 58 L112 85 L90 70 L68 85 L74 58 L52 40 L80 38 Z" fill="#1f6fb2" />
    <path d="M145 45 A60 60 0 0 1 150 120" fill="none" stroke="#1f6fb2" stroke-width="7" stroke-linecap="round" />
  </g>

  <g transform="translate(905 58)">
    <rect x="0" y="0" width="190" height="120" rx="14" fill="#1b2b40" />
    <circle cx="48" cy="60" r="22" fill="#f4a11a" />
    <rect x="90" y="45" width="70" height="12" rx="6" fill="#3bc987" />
    <rect x="90" y="66" width="46" height="12" rx="6" fill="#53b2ff" />
    <path d="M48 16 L53 31 L69 31 L56 41 L61 56 L48 46 L35 56 L40 41 L27 31 L43 31 Z" fill="#ffd166" />
  </g>

  <g font-family="Segoe UI, Arial, sans-serif" font-size="20" font-weight="700" fill="#24384d" text-anchor="middle">
    <text x="200" y="205">Python Basics</text>
    <text x="600" y="205">Turtle Drawing</text>
    <text x="1000" y="205">Pygame Projects</text>
  </g>
</svg>
